<svg width="19" height="18" viewBox="0 0 19 18" fill="none" xmlns="http://www.w3.org/2000/svg">
<path d="M12.0068 4.13246L12.0068 11.7525C12.0068 12.0525 11.9168 12.345 11.7518 12.5925L9.70434 15.6375C9.38184 16.125 8.57934 16.47 7.89684 16.215C7.16184 15.9675 6.67434 15.1425 6.83184 14.4075L7.22184 11.955C7.25184 11.73 7.19184 11.5275 7.06434 11.37C6.93684 11.2275 6.74934 11.1375 6.54684 11.1375H3.46434C2.87184 11.1375 2.36184 10.8975 2.06184 10.4775C1.77684 10.0725 1.72434 9.54746 1.91184 9.01496L3.75684 3.39746C3.98934 2.46746 5.00184 1.70996 6.00684 1.70996H8.93184C9.43434 1.70996 10.1393 1.88246 10.4618 2.20496L11.4218 2.94746C11.7893 3.22496 12.0068 3.66746 12.0068 4.13246Z" fill="#EFF4C3"/>
<path d="M14.3923 13.2148H15.1648C16.3273 13.2148 16.7998 12.7648 16.7998 11.6548V4.10984C16.7998 2.99984 16.3273 2.54984 15.1648 2.54984H14.3923C13.2298 2.54984 12.7573 2.99984 12.7573 4.10984V11.6548C12.7573 12.7648 13.2298 13.2148 14.3923 13.2148Z" fill="#EB4335"/>
</svg>
