<svg width="12" height="12" viewBox="0 0 12 12" fill="none" xmlns="http://www.w3.org/2000/svg">
<path d="M6 1.375C2.5315 1.375 1.375 2.5315 1.375 6C1.375 9.4685 2.5315 10.625 6 10.625C9.4685 10.625 10.625 9.4685 10.625 6" stroke="#EFF4C3" stroke-linecap="round" stroke-linejoin="round"/>
<path fill-rule="evenodd" clip-rule="evenodd" d="M9.76402 2.15182V2.15182C9.26752 1.71232 8.50902 1.75832 8.06952 2.25482C8.06952 2.25482 5.88502 4.72232 5.12752 5.57882C4.36902 6.43482 4.92502 7.61732 4.92502 7.61732C4.92502 7.61732 6.17702 8.01382 6.92402 7.16982C7.67152 6.32582 9.86702 3.84632 9.86702 3.84632C10.3065 3.34982 10.26 2.59132 9.76402 2.15182Z" stroke="#EFF4C3" stroke-linecap="round" stroke-linejoin="round"/>
<path d="M7.50488 2.90039L9.30238 4.49189" stroke="#EFF4C3" stroke-linecap="round" stroke-linejoin="round"/>
</svg>
