
<svg width="18" height="18" viewBox="0 0 18 18" fill="none" xmlns="http://www.w3.org/2000/svg">
    <path d="M8.35769 13.4122H3.5033" stroke="#666666" stroke-width="1.5" stroke-linecap="round" stroke-linejoin="round"/>
    <path fill-rule="evenodd" clip-rule="evenodd" d="M11.4037 13.4129C11.4037 14.9443 11.9144 15.4543 13.445 15.4543C14.9757 15.4543 15.4864 14.9443 15.4864 13.4129C15.4864 11.8816 14.9757 11.3716 13.445 11.3716C11.9144 11.3716 11.4037 11.8816 11.4037 13.4129Z" stroke="#666666" stroke-width="1.5" stroke-linecap="round" stroke-linejoin="round"/>
    <path d="M10.6323 5.54598H15.486" stroke="#666666" stroke-width="1.5" stroke-linecap="round" stroke-linejoin="round"/>
    <path fill-rule="evenodd" clip-rule="evenodd" d="M7.58641 5.54476C7.58641 4.01409 7.07574 3.50342 5.54506 3.50342C4.01372 3.50342 3.50305 4.01409 3.50305 5.54476C3.50305 7.0761 4.01372 7.5861 5.54506 7.5861C7.07574 7.5861 7.58641 7.0761 7.58641 5.54476Z" stroke="#666666" stroke-width="1.5" stroke-linecap="round" stroke-linejoin="round"/>
</svg>
