<svg width="18" height="19" viewBox="0 0 18 19" fill="none" xmlns="http://www.w3.org/2000/svg">
<path d="M14.2998 9.8V15.8C14.2998 16.16 14.0598 16.4 13.6998 16.4H4.0998C3.7398 16.4 3.4998 16.16 3.4998 15.8V9.8H8.2998V15.2H9.4998V9.8H14.2998ZM8.2998 5.6H2.8998C2.5398 5.6 2.2998 5.84 2.2998 6.2V8C2.2998 8.36 2.5398 8.6 2.8998 8.6H8.2998V5.6ZM14.8998 5.6H9.4998V8.6H14.8998C15.2598 8.6 15.4998 8.36 15.4998 8V6.2C15.4998 5.84 15.2598 5.6 14.8998 5.6ZM13.1598 4.94L13.2198 4.7C13.4598 4.1 13.3998 3.38 13.0398 2.84C12.6798 2.3 12.0198 2 11.3598 2C10.5198 2 9.7998 2.48 9.4998 3.26L8.2998 6.2H11.2998C12.0798 6.2 12.8598 5.72 13.1598 4.94ZM10.6398 3.68C10.7598 3.38 11.0598 3.2 11.3598 3.2C11.5998 3.2 11.8398 3.32 12.0198 3.56C12.1398 3.8 12.1998 4.04 12.0798 4.28L12.0198 4.52C11.8998 4.82 11.5998 5 11.2998 5H10.0998L10.6398 3.68ZM8.2998 3.26C7.9998 2.48 7.2198 2 6.4398 2C5.7798 2 5.1198 2.3 4.7598 2.9C4.3998 3.44 4.3398 4.1 4.5798 4.76L4.6398 5C4.9398 5.72 5.7198 6.2 6.4998 6.2H9.4398L8.2998 3.26ZM7.1598 3.68L7.6998 5H6.4998C6.1998 5 5.8998 4.82 5.7798 4.52L5.6598 4.28C5.5998 4.04 5.5998 3.74 5.7798 3.56C5.8998 3.32 6.1398 3.2 6.4398 3.2C6.7398 3.2 7.0398 3.38 7.1598 3.68Z" fill="#EFF4C3"/>
</svg>
