<svg width="14" height="15" viewBox="0 0 14 15" fill="none" xmlns="http://www.w3.org/2000/svg">
<path d="M12.2998 7.8V13.8C12.2998 14.16 12.0598 14.4 11.6998 14.4H2.0998C1.7398 14.4 1.4998 14.16 1.4998 13.8V7.8H6.2998V13.2H7.4998V7.8H12.2998ZM6.2998 3.6H0.899805C0.539805 3.6 0.299805 3.84 0.299805 4.2V6C0.299805 6.36 0.539805 6.6 0.899805 6.6H6.2998V3.6ZM12.8998 3.6H7.4998V6.6H12.8998C13.2598 6.6 13.4998 6.36 13.4998 6V4.2C13.4998 3.84 13.2598 3.6 12.8998 3.6ZM11.1598 2.94L11.2198 2.7C11.4598 2.1 11.3998 1.38 11.0398 0.84C10.6798 0.3 10.0198 0 9.3598 0C8.5198 0 7.7998 0.48 7.4998 1.26L6.2998 4.2H9.2998C10.0798 4.2 10.8598 3.72 11.1598 2.94ZM8.6398 1.68C8.7598 1.38 9.0598 1.2 9.3598 1.2C9.5998 1.2 9.8398 1.32 10.0198 1.56C10.1398 1.8 10.1998 2.04 10.0798 2.28L10.0198 2.52C9.8998 2.82 9.5998 3 9.2998 3H8.0998L8.6398 1.68ZM6.2998 1.26C5.9998 0.48 5.2198 0 4.4398 0C3.7798 0 3.1198 0.3 2.7598 0.9C2.3998 1.44 2.3398 2.1 2.5798 2.76L2.6398 3C2.9398 3.72 3.7198 4.2 4.4998 4.2H7.4398L6.2998 1.26ZM5.1598 1.68L5.6998 3H4.4998C4.1998 3 3.8998 2.82 3.7798 2.52L3.6598 2.28C3.5998 2.04 3.5998 1.74 3.7798 1.56C3.8998 1.32 4.1398 1.2 4.4398 1.2C4.7398 1.2 5.0398 1.38 5.1598 1.68Z" fill="#EFF4C3"/>
</svg>
