<svg width="19" height="18" viewBox="0 0 19 18" fill="none" xmlns="http://www.w3.org/2000/svg">
<path d="M6.59277 13.8675V6.24754C6.59277 5.94754 6.68277 5.65504 6.84777 5.40754L8.89527 2.36254C9.21777 1.87504 10.0203 1.53004 10.7028 1.78504C11.4378 2.03254 11.9253 2.85754 11.7678 3.59254L11.3778 6.04504C11.3478 6.27004 11.4078 6.47254 11.5353 6.63004C11.6628 6.77254 11.8503 6.86254 12.0528 6.86254H15.1353C15.7278 6.86254 16.2378 7.10254 16.5378 7.52254C16.8228 7.92754 16.8753 8.45254 16.6878 8.98504L14.8428 14.6025C14.6103 15.5325 13.5978 16.29 12.5928 16.29H9.66777C9.16527 16.29 8.46027 16.1175 8.13777 15.795L7.17777 15.0525C6.81027 14.775 6.59277 14.3325 6.59277 13.8675Z" fill="#EB4335"/>
<path d="M4.2073 4.78516H3.4348C2.2723 4.78516 1.7998 5.23516 1.7998 6.34516V13.8902C1.7998 15.0002 2.2723 15.4502 3.4348 15.4502H4.2073C5.3698 15.4502 5.8423 15.0002 5.8423 13.8902V6.34516C5.8423 5.23516 5.3698 4.78516 4.2073 4.78516Z" fill="#EFF4C3"/>
</svg>
