<svg width="19" height="18" viewBox="0 0 19 18" fill="none" xmlns="http://www.w3.org/2000/svg">
<g clip-path="url(#clip0_1064_561)">
<path d="M4.4375 11.25C3.99249 11.25 3.55748 11.118 3.18747 10.8708C2.81746 10.6236 2.52907 10.2722 2.35877 9.86104C2.18847 9.4499 2.14392 8.99751 2.23073 8.56105C2.31755 8.12459 2.53184 7.72368 2.84651 7.40901C3.16118 7.09434 3.56209 6.88005 3.99855 6.79323C4.435 6.70642 4.88741 6.75097 5.29854 6.92127C5.70967 7.09157 6.06107 7.37996 6.30831 7.74997C6.55554 8.11998 6.6875 8.55499 6.6875 9C6.6875 9.59674 6.45045 10.169 6.02849 10.591C5.60653 11.0129 5.03424 11.25 4.4375 11.25ZM4.4375 7.875C4.215 7.875 3.99749 7.94098 3.81248 8.0646C3.62748 8.18821 3.48328 8.36392 3.39814 8.56948C3.31299 8.77505 3.29071 9.00125 3.33412 9.21948C3.37753 9.43771 3.48467 9.63816 3.64201 9.7955C3.79934 9.95283 3.9998 10.06 4.21802 10.1034C4.43625 10.1468 4.66245 10.1245 4.86802 10.0394C5.07359 9.95422 5.24929 9.81002 5.3729 9.62502C5.49652 9.44001 5.5625 9.22251 5.5625 9C5.5625 8.70163 5.44397 8.41548 5.233 8.20451C5.02202 7.99353 4.73587 7.875 4.4375 7.875Z" fill="#EFF4C3"/>
<path d="M14.5625 6.75C14.1175 6.75 13.6825 6.61804 13.3125 6.37081C12.9425 6.12357 12.6541 5.77217 12.4838 5.36104C12.3135 4.94991 12.2689 4.4975 12.3557 4.06105C12.4426 3.62459 12.6568 3.22368 12.9715 2.90901C13.2862 2.59434 13.6871 2.38005 14.1235 2.29323C14.56 2.20642 15.0124 2.25097 15.4235 2.42127C15.8347 2.59157 16.1861 2.87996 16.4333 3.24997C16.6805 3.61998 16.8125 4.05499 16.8125 4.5C16.8125 5.09674 16.5754 5.66903 16.1535 6.09099C15.7315 6.51295 15.1592 6.75 14.5625 6.75ZM14.5625 3.375C14.34 3.375 14.1225 3.44098 13.9375 3.5646C13.7525 3.68821 13.6083 3.86392 13.5231 4.06948C13.438 4.27505 13.4157 4.50125 13.4591 4.71948C13.5025 4.93771 13.6097 5.13816 13.767 5.2955C13.9243 5.45283 14.1248 5.55998 14.343 5.60338C14.5613 5.64679 14.7875 5.62451 14.993 5.53937C15.1986 5.45422 15.3743 5.31002 15.4979 5.12502C15.6215 4.94001 15.6875 4.72251 15.6875 4.5C15.6875 4.20163 15.569 3.91548 15.358 3.70451C15.147 3.49353 14.8609 3.375 14.5625 3.375Z" fill="#EFF4C3"/>
<path d="M14.5625 15.75C14.1175 15.75 13.6825 15.618 13.3125 15.3708C12.9425 15.1236 12.6541 14.7722 12.4838 14.361C12.3135 13.9499 12.2689 13.4975 12.3557 13.061C12.4426 12.6246 12.6568 12.2237 12.9715 11.909C13.2862 11.5943 13.6871 11.3801 14.1235 11.2932C14.56 11.2064 15.0124 11.251 15.4235 11.4213C15.8347 11.5916 16.1861 11.88 16.4333 12.25C16.6805 12.62 16.8125 13.055 16.8125 13.5C16.8125 14.0967 16.5754 14.669 16.1535 15.091C15.7315 15.5129 15.1592 15.75 14.5625 15.75ZM14.5625 12.375C14.34 12.375 14.1225 12.441 13.9375 12.5646C13.7525 12.6882 13.6083 12.8639 13.5231 13.0695C13.438 13.275 13.4157 13.5012 13.4591 13.7195C13.5025 13.9377 13.6097 14.1382 13.767 14.2955C13.9243 14.4528 14.1248 14.56 14.343 14.6034C14.5613 14.6468 14.7875 14.6245 14.993 14.5394C15.1986 14.4542 15.3743 14.31 15.4979 14.125C15.6215 13.94 15.6875 13.7225 15.6875 13.5C15.6875 13.2016 15.569 12.9155 15.358 12.7045C15.147 12.4935 14.8609 12.375 14.5625 12.375Z" fill="#EFF4C3"/>
<path d="M12.8754 12.9376C12.7582 12.9368 12.6441 12.8995 12.5491 12.8307C9.94478 10.9745 8.9379 10.5245 5.9454 9.56261C5.87522 9.53897 5.81039 9.50174 5.7546 9.45305C5.69882 9.40435 5.65317 9.34515 5.62026 9.27881C5.58735 9.21248 5.56784 9.14031 5.56282 9.06643C5.5578 8.99255 5.56739 8.91841 5.59102 8.84823C5.61466 8.77806 5.65189 8.71322 5.70058 8.65744C5.74928 8.60165 5.80848 8.556 5.87482 8.52309C5.94115 8.49019 6.01332 8.47067 6.0872 8.46565C6.16108 8.46063 6.23522 8.47022 6.3054 8.49386C9.39915 9.52886 10.5354 10.0407 13.2016 11.9476C13.287 12.0201 13.3487 12.1163 13.379 12.2241C13.4094 12.3318 13.4068 12.4461 13.3718 12.5524C13.3368 12.6587 13.2708 12.7522 13.1824 12.8208C13.094 12.8894 12.9871 12.9301 12.8754 12.9376Z" fill="#EFF4C3"/>
<path d="M6.12479 9.56254C6.00687 9.56285 5.89183 9.52608 5.79594 9.45744C5.70005 9.3888 5.62815 9.29176 5.59042 9.18004C5.56659 9.10987 5.55686 9.03569 5.56179 8.96176C5.56672 8.88782 5.58621 8.81559 5.61914 8.74921C5.65207 8.68282 5.69779 8.6236 5.75368 8.57494C5.80956 8.52628 5.87451 8.48915 5.94479 8.46567C8.90917 7.47567 9.94417 7.02567 12.5485 5.16942C12.6078 5.1187 12.6769 5.08085 12.7515 5.05827C12.8262 5.0357 12.9047 5.02888 12.9821 5.03827C13.0595 5.04765 13.1341 5.07302 13.2012 5.11278C13.2683 5.15253 13.3263 5.2058 13.3717 5.2692C13.4171 5.3326 13.4489 5.40474 13.4649 5.48105C13.4809 5.55736 13.4809 5.63617 13.4649 5.71247C13.4488 5.78878 13.4171 5.86091 13.3716 5.9243C13.3262 5.98768 13.2681 6.04093 13.201 6.08067C10.5348 7.98754 9.39854 8.49942 6.30479 9.53442C6.24627 9.55156 6.18576 9.56101 6.12479 9.56254Z" fill="#EFF4C3"/>
</g>
<defs>
<clipPath id="clip0_1064_561">
<rect width="18" height="18" fill="white" transform="translate(0.5)"/>
</clipPath>
</defs>
</svg>
