<svg width="18" height="18" viewBox="0 0 18 18" fill="none" xmlns="http://www.w3.org/2000/svg">
<g clip-path="url(#clip0_945_2608)">
<path d="M7.87513 0C9.71625 0.141955 10.2425 0.680416 11.5753 2.01929C16.1283 7.53482 16.1283 7.53482 16.2423 10.9336C15.9692 13.3676 15.1253 15.0177 13.5001 16.875C11.1081 18.4697 8.99643 18.3626 6.18763 18C4.01894 16.8769 3.03873 16.0891 1.68763 14.0625C1.09618 10.9119 1.43045 8.44853 3.19935 5.76562C3.8044 4.9565 4.42513 4.15881 5.06263 3.375C5.34325 3.02333 5.62386 2.67166 5.91297 2.30933C6.55222 1.52721 7.21135 0.7614 7.87513 0ZM8.43763 2.8125C7.42022 4.03864 7.42022 4.03864 6.75013 5.625C7.14825 8.21275 8.8819 9.45465 10.8261 11.0083C11.7826 11.788 12.6427 12.6137 13.5001 13.5C14.1602 11.2447 14.1549 10.3237 13.1486 8.15625C11.9197 6.23374 10.5279 4.50543 9.00013 2.8125C8.81451 2.8125 8.62888 2.8125 8.43763 2.8125ZM4.50013 7.875C3.56885 9.29931 3.37435 10.0875 3.41029 11.8125C4.08942 13.9857 4.7757 14.634 6.75013 15.75C8.83667 15.9382 8.83667 15.9382 10.6876 15.75C10.4165 13.3264 9.79698 12.3815 7.91029 10.8633C7.51076 10.5363 7.11123 10.2092 6.6996 9.87231C6.34502 9.58445 5.99045 9.29659 5.62513 9C5.25388 8.62875 4.88263 8.2575 4.50013 7.875Z" fill="#4CA3FF"/>
</g>
<defs>
<clipPath id="clip0_945_2608">
<rect width="18" height="18" fill="white"/>
</clipPath>
</defs>
</svg>
